<svg width="35" height="37" viewBox="0 0 35 37" fill="none" xmlns="http://www.w3.org/2000/svg">
<path d="M35 18.6691C35 8.83212 27.1649 0.857544 17.5 0.857544C7.83508 0.857544 0 8.83212 0 18.6691C0 27.5593 6.39953 34.9282 14.7656 36.2643V23.8178H10.3223V18.6691H14.7656V14.745C14.7656 10.281 17.3783 7.81519 21.3757 7.81519C23.2903 7.81519 25.293 8.16307 25.293 8.16307V12.5464H23.0863C20.9124 12.5464 20.2344 13.9194 20.2344 15.3281V18.6691H25.0879L24.312 23.8178H20.2344V36.2643C28.6005 34.9282 35 27.5595 35 18.6691Z" fill="#1877F2"/>
<path d="M24.312 23.8178L25.0879 18.6691H20.2344V15.3281C20.2344 13.9193 20.9124 12.5464 23.0863 12.5464H25.293V8.16307C25.293 8.16307 23.2903 7.81519 21.3756 7.81519C17.3783 7.81519 14.7656 10.281 14.7656 14.745V18.6691H10.3223V23.8178H14.7656V36.2643C15.6702 36.4086 16.5844 36.4809 17.5 36.4807C18.4156 36.4809 19.3298 36.4086 20.2344 36.2643V23.8178H24.312Z" fill="white"/>
</svg>
