<svg width="50" height="50" viewBox="0 0 50 50" fill="none" xmlns="http://www.w3.org/2000/svg">
<path d="M35.2333 34.6146C37.2043 31.7925 38.2604 28.4328 38.2586 24.9906C38.2567 21.5483 37.197 18.1898 35.2228 15.3698M33.3416 13.1313C30.9942 10.7837 28.0033 9.18495 24.7472 8.5372C21.4911 7.88946 18.1161 8.22181 15.0489 9.49223C11.9817 10.7627 9.36013 12.9141 7.51569 15.6744C5.67124 18.4348 4.68677 21.6801 4.68677 25C4.68677 28.3199 5.67124 31.5652 7.51569 34.3256C9.36013 37.086 11.9817 39.2374 15.0489 40.5078C18.1161 41.7782 21.4911 42.1106 24.7472 41.4628C28.0033 40.8151 30.9942 39.2164 33.3416 36.8688" stroke="#0B0C10" stroke-width="5" stroke-linecap="round" stroke-linejoin="round"/>
<path d="M27.5635 17.628C25.888 16.2437 23.7909 15.4715 21.6177 15.4386C19.4446 15.4057 17.325 16.114 15.6083 17.447C13.8916 18.7799 12.6802 20.6579 12.1737 22.7714C11.6672 24.885 11.8958 27.1081 12.8218 29.0743C13.7479 31.0406 15.3161 32.6327 17.2681 33.5884C19.2201 34.5441 21.4395 34.8063 23.5605 34.3318C25.6815 33.8574 27.5775 32.6745 28.9363 30.9782C30.2951 29.2819 31.0354 27.1733 31.0354 24.9999H22.6333M41.0167 38.6551C43.8153 34.6466 45.3148 29.8749 45.312 24.986C45.3092 20.0971 43.8043 15.3271 41.001 11.3218" stroke="#0B0C10" stroke-width="5" stroke-linecap="round" stroke-linejoin="round"/>
</svg>
