<svg width="25" height="25" viewBox="0 0 25 25" fill="none" xmlns="http://www.w3.org/2000/svg">
<g clip-path="url(#clip0_15_72)">
<path d="M14.0625 17.1875C14.0625 17.6019 13.8979 17.9993 13.6049 18.2924C13.3118 18.5854 12.9144 18.75 12.5 18.75C12.0856 18.75 11.6882 18.5854 11.3951 18.2924C11.1021 17.9993 10.9375 17.6019 10.9375 17.1875C10.9375 16.7731 11.1021 16.3757 11.3951 16.0826C11.6882 15.7896 12.0856 15.625 12.5 15.625C12.9144 15.625 13.3118 15.7896 13.6049 16.0826C13.8979 16.3757 14.0625 16.7731 14.0625 17.1875ZM11.7188 6.25C10.6827 6.25 9.68918 6.66155 8.95661 7.39411C8.22405 8.12668 7.8125 9.12025 7.8125 10.1562H10.9375C10.9375 9.94905 11.0198 9.75034 11.1663 9.60382C11.3128 9.45731 11.5115 9.375 11.7188 9.375H12.7281C12.8627 9.37506 12.9932 9.42057 13.0986 9.50415C13.2041 9.58772 13.2782 9.70446 13.3089 9.83544C13.3397 9.96641 13.3253 10.1039 13.2681 10.2257C13.2109 10.3475 13.1142 10.4463 12.9938 10.5062L10.9375 11.5344V14.0625H14.0625V13.4656L14.3922 13.3C15.1416 12.9248 15.7425 12.3077 16.0975 11.5485C16.4525 10.7893 16.5409 9.93255 16.3484 9.11687C16.1559 8.30119 15.6937 7.57437 15.0367 7.05407C14.3796 6.53377 13.5662 6.25046 12.7281 6.25H11.7188Z" fill="rgb(250, 180, 3)"/>
<path d="M0 12.5C0 9.18479 1.31696 6.00537 3.66117 3.66117C6.00537 1.31696 9.18479 0 12.5 0C15.8152 0 18.9946 1.31696 21.3388 3.66117C23.683 6.00537 25 9.18479 25 12.5C25 15.8152 23.683 18.9946 21.3388 21.3388C18.9946 23.683 15.8152 25 12.5 25C9.18479 25 6.00537 23.683 3.66117 21.3388C1.31696 18.9946 0 15.8152 0 12.5ZM12.5 3.125C11.2689 3.125 10.0498 3.36749 8.91234 3.83863C7.77492 4.30977 6.74142 5.00032 5.87087 5.87087C5.00032 6.74142 4.30977 7.77492 3.83863 8.91234C3.36749 10.0498 3.125 11.2689 3.125 12.5C3.125 13.7311 3.36749 14.9502 3.83863 16.0877C4.30977 17.2251 5.00032 18.2586 5.87087 19.1291C6.74142 19.9997 7.77492 20.6902 8.91234 21.1614C10.0498 21.6325 11.2689 21.875 12.5 21.875C14.9864 21.875 17.371 20.8873 19.1291 19.1291C20.8873 17.371 21.875 14.9864 21.875 12.5C21.875 10.0136 20.8873 7.62903 19.1291 5.87087C17.371 4.11272 14.9864 3.125 12.5 3.125Z" fill="rgb(250, 180, 3)"/>
</g>
<defs>
<clipPath id="clip0_15_72">
<rect width="25" height="25" fill="white"/>
</clipPath>
</defs>
</svg>
