<svg width="50" height="50" viewBox="0 0 50 50" fill="none" xmlns="http://www.w3.org/2000/svg">
<path d="M16.6667 39.5833V10.4166H23.9583C25.1895 10.4166 26.4086 10.6591 27.546 11.1303C28.6834 11.6014 29.7169 12.292 30.5875 13.1625C31.458 14.033 32.1486 15.0665 32.6197 16.204C33.0908 17.3414 33.3333 18.5605 33.3333 19.7916C33.3333 21.0228 33.0908 22.2419 32.6197 23.3793C32.1486 24.5167 31.458 25.5502 30.5875 26.4208C29.7169 27.2913 28.6834 27.9819 27.546 28.453C26.4086 28.9241 25.1895 29.1666 23.9583 29.1666H16.6667M37.5 16.6666H12.5M37.5 22.9166H12.5" stroke="#45A29E" stroke-width="2" stroke-linecap="round" stroke-linejoin="round"/>
</svg>
