<svg width="40" height="32" viewBox="0 0 40 32" fill="none" xmlns="http://www.w3.org/2000/svg">
<g clip-path="url(#clip0_15_78)">
<path d="M22.8571 28.5714H37.1429V25.7143H22.8571V28.5714ZM14.2857 17.1429H37.1429V14.2857H14.2857V17.1429ZM28.5714 5.71429H37.1429V2.85714H28.5714V5.71429ZM40 24.2857V30C40 30.3869 39.8586 30.7217 39.5759 31.0045C39.2932 31.2872 38.9583 31.4286 38.5714 31.4286H1.42857C1.04167 31.4286 0.706845 31.2872 0.424107 31.0045C0.141369 30.7217 0 30.3869 0 30V24.2857C0 23.8988 0.141369 23.564 0.424107 23.2812C0.706845 22.9985 1.04167 22.8571 1.42857 22.8571H38.5714C38.9583 22.8571 39.2932 22.9985 39.5759 23.2812C39.8586 23.564 40 23.8988 40 24.2857ZM40 12.8571V18.5714C40 18.9583 39.8586 19.2932 39.5759 19.5759C39.2932 19.8586 38.9583 20 38.5714 20H1.42857C1.04167 20 0.706845 19.8586 0.424107 19.5759C0.141369 19.2932 0 18.9583 0 18.5714V12.8571C0 12.4702 0.141369 12.1354 0.424107 11.8527C0.706845 11.5699 1.04167 11.4286 1.42857 11.4286H38.5714C38.9583 11.4286 39.2932 11.5699 39.5759 11.8527C39.8586 12.1354 40 12.4702 40 12.8571ZM40 1.42857V7.14286C40 7.52976 39.8586 7.86458 39.5759 8.14732C39.2932 8.43006 38.9583 8.57143 38.5714 8.57143H1.42857C1.04167 8.57143 0.706845 8.43006 0.424107 8.14732C0.141369 7.86458 0 7.52976 0 7.14286V1.42857C0 1.04167 0.141369 0.706845 0.424107 0.424107C0.706845 0.141369 1.04167 0 1.42857 0H38.5714C38.9583 0 39.2932 0.141369 39.5759 0.424107C39.8586 0.706845 40 1.04167 40 1.42857Z" fill="rgb(250, 180, 3)"/>
</g>
<defs>
<clipPath id="clip0_15_78">
<rect width="40" height="31.4286" fill="white"/>
</clipPath>
</defs>
</svg>
