<svg width="55" height="55" viewBox="0 0 55 55" fill="none" xmlns="http://www.w3.org/2000/svg">
<path d="M17.6274 27.264L20.8587 28.3411C22.9945 29.0515 24.0601 29.409 24.8255 30.1744C25.591 30.9398 25.9485 32.0077 26.6589 34.139L27.736 37.3702C29.5326 42.7648 30.431 45.4598 32.0833 45.4598C33.7333 45.4598 34.6339 42.7648 36.4305 37.3702L42.9343 17.8636C44.1993 14.0686 44.8318 12.1711 43.8303 11.1696C42.8289 10.1681 40.9314 10.8006 37.1387 12.0633L17.6251 18.5717C12.2374 20.3661 9.53784 21.2644 9.53784 22.9167C9.53784 24.569 12.2351 25.4673 17.6274 27.264Z" fill="rgb(250, 180, 3)" fill-opacity="0.25"/>
<path d="M17.6274 27.264L20.8587 28.3411C22.9945 29.0515 24.0601 29.409 24.8255 30.1744C25.591 30.9398 25.9485 32.0077 26.6589 34.139L27.736 37.3702C29.5326 42.7648 30.431 45.4598 32.0833 45.4598C33.7333 45.4598 34.6339 42.7648 36.4305 37.3702L42.9343 17.8636C44.1993 14.0686 44.8318 12.1711 43.8303 11.1696C42.8289 10.1681 40.9314 10.8006 37.1387 12.0633L17.6251 18.5717C12.2374 20.3661 9.53784 21.2644 9.53784 22.9167C9.53784 24.569 12.2351 25.4673 17.6274 27.264Z" fill="rgb(250, 180, 3)" fill-opacity="0.25"/>
<path d="M21.8303 31.7213L17.1049 30.1469C16.7742 30.0367 16.4228 30.0033 16.0773 30.0494C15.7318 30.0955 15.4014 30.2197 15.1111 30.4127L12.6132 32.0765C12.3175 32.2735 12.0854 32.5522 11.9452 32.8787C11.805 33.2051 11.7626 33.5653 11.8233 33.9154C11.884 34.2655 12.0451 34.5904 12.2871 34.8506C12.529 35.1108 12.8414 35.2951 13.1861 35.3811L17.6663 36.4994C17.868 36.5497 18.0521 36.654 18.199 36.8009C18.346 36.9478 18.4502 37.132 18.5005 37.3336L19.6188 41.8138C19.7048 42.1585 19.8891 42.4709 20.1493 42.7128C20.4095 42.9548 20.7344 43.1159 21.0845 43.1766C21.4346 43.2373 21.7948 43.1949 22.1213 43.0547C22.4477 42.9145 22.7264 42.6824 22.9234 42.3867L24.5872 39.8888C24.7802 39.5986 24.9045 39.2681 24.9505 38.9226C24.9966 38.5771 24.9632 38.2257 24.853 37.895L23.2786 33.1696C23.1661 32.8324 22.9767 32.526 22.7253 32.2746C22.4739 32.0233 22.1675 31.8338 21.8303 31.7213Z" fill="rgb(250, 180, 3)"/>
</svg>
